<svg width="24" height="24" viewBox="0 0 24 24" fill="none" xmlns="http://www.w3.org/2000/svg">
<mask id="path-1-outside-1" maskUnits="userSpaceOnUse" x="5.10107" y="5.11548" width="14" height="14" fill="black">
<rect fill="white" x="5.10107" y="5.11548" width="14" height="14"/>
<path fill-rule="evenodd" clip-rule="evenodd" d="M8.23496 6.48159C7.7468 5.99344 6.95535 5.99344 6.46719 6.4816C5.97904 6.96975 5.97904 7.76121 6.46719 8.24936L10.2178 12L6.46719 15.7506C5.97904 16.2388 5.97904 17.0302 6.46719 17.5184C6.95535 18.0066 7.7468 18.0066 8.23496 17.5184L11.9856 13.7678L15.7362 17.5183C16.2243 18.0065 17.0158 18.0065 17.5039 17.5183C17.9921 17.0302 17.9921 16.2387 17.5039 15.7506L13.7534 12L17.5039 8.24944C17.9921 7.76128 17.9921 6.96983 17.5039 6.48167C17.0158 5.99352 16.2243 5.99352 15.7362 6.48167L11.9856 10.2322L8.23496 6.48159Z"/>
</mask>
<path fill-rule="evenodd" clip-rule="evenodd" d="M8.23496 6.48159C7.7468 5.99344 6.95535 5.99344 6.46719 6.4816C5.97904 6.96975 5.97904 7.76121 6.46719 8.24936L10.2178 12L6.46719 15.7506C5.97904 16.2388 5.97904 17.0302 6.46719 17.5184C6.95535 18.0066 7.7468 18.0066 8.23496 17.5184L11.9856 13.7678L15.7362 17.5183C16.2243 18.0065 17.0158 18.0065 17.5039 17.5183C17.9921 17.0302 17.9921 16.2387 17.5039 15.7506L13.7534 12L17.5039 8.24944C17.9921 7.76128 17.9921 6.96983 17.5039 6.48167C17.0158 5.99352 16.2243 5.99352 15.7362 6.48167L11.9856 10.2322L8.23496 6.48159Z" fill="white"/>
<path d="M6.46719 6.4816L7.1743 7.1887H7.1743L6.46719 6.4816ZM8.23496 6.48159L8.94206 5.77449L8.94206 5.77449L8.23496 6.48159ZM6.46719 8.24936L7.1743 7.54226L7.1743 7.54226L6.46719 8.24936ZM10.2178 12L10.9249 12.7071L11.632 12L10.9249 11.2929L10.2178 12ZM6.46719 15.7506L5.76008 15.0435H5.76008L6.46719 15.7506ZM6.46719 17.5184L5.76008 18.2255L6.46719 17.5184ZM8.23496 17.5184L7.52785 16.8113H7.52785L8.23496 17.5184ZM11.9856 13.7678L12.6927 13.0607L11.9856 12.3536L11.2785 13.0607L11.9856 13.7678ZM15.7362 17.5183L15.029 18.2254L15.029 18.2254L15.7362 17.5183ZM17.5039 15.7506L16.7968 16.4577L16.7968 16.4577L17.5039 15.7506ZM13.7534 12L13.0463 11.2929L12.3391 12L13.0463 12.7071L13.7534 12ZM17.5039 8.24944L18.211 8.95655L18.211 8.95655L17.5039 8.24944ZM17.5039 6.48167L18.211 5.77457V5.77456L17.5039 6.48167ZM15.7362 6.48167L16.4433 7.18878L16.4433 7.18878L15.7362 6.48167ZM11.9856 10.2322L11.2785 10.9393L11.9856 11.6464L12.6927 10.9393L11.9856 10.2322ZM7.1743 7.1887C7.27193 7.09107 7.43022 7.09107 7.52785 7.1887L8.94206 5.77449C8.06338 4.89581 6.63876 4.89581 5.76008 5.77449L7.1743 7.1887ZM7.1743 7.54226C7.07667 7.44462 7.07667 7.28633 7.1743 7.1887L5.76008 5.77449C4.8814 6.65317 4.8814 8.07779 5.76008 8.95647L7.1743 7.54226ZM10.9249 11.2929L7.1743 7.54226L5.76008 8.95647L9.51072 12.7071L10.9249 11.2929ZM7.1743 16.4577L10.9249 12.7071L9.51072 11.2929L5.76008 15.0435L7.1743 16.4577ZM7.1743 16.8113C7.07667 16.7137 7.07667 16.5554 7.1743 16.4577L5.76008 15.0435C4.8814 15.9222 4.8814 17.3468 5.76008 18.2255L7.1743 16.8113ZM7.52785 16.8113C7.43022 16.9089 7.27193 16.9089 7.1743 16.8113L5.76008 18.2255C6.63876 19.1042 8.06338 19.1042 8.94206 18.2255L7.52785 16.8113ZM11.2785 13.0607L7.52785 16.8113L8.94206 18.2255L12.6927 14.4749L11.2785 13.0607ZM16.4433 16.8112L12.6927 13.0607L11.2785 14.4749L15.029 18.2254L16.4433 16.8112ZM16.7968 16.8112C16.6992 16.9088 16.5409 16.9088 16.4433 16.8112L15.029 18.2254C15.9077 19.1041 17.3323 19.1041 18.211 18.2254L16.7968 16.8112ZM16.7968 16.4577C16.8944 16.5553 16.8944 16.7136 16.7968 16.8112L18.211 18.2254C19.0897 17.3468 19.0897 15.9221 18.211 15.0434L16.7968 16.4577ZM13.0463 12.7071L16.7968 16.4577L18.211 15.0435L14.4605 11.2929L13.0463 12.7071ZM16.7968 7.54233L13.0463 11.2929L14.4605 12.7071L18.211 8.95655L16.7968 7.54233ZM16.7968 7.18878C16.8944 7.28641 16.8944 7.4447 16.7968 7.54233L18.211 8.95655C19.0897 8.07787 19.0897 6.65325 18.211 5.77457L16.7968 7.18878ZM16.4433 7.18878C16.5409 7.09115 16.6992 7.09115 16.7968 7.18878L18.211 5.77456C17.3323 4.89589 15.9077 4.89589 15.029 5.77457L16.4433 7.18878ZM12.6927 10.9393L16.4433 7.18878L15.029 5.77456L11.2785 9.52512L12.6927 10.9393ZM7.52785 7.1887L11.2785 10.9393L12.6927 9.52512L8.94206 5.77449L7.52785 7.1887Z" fill="#5A5A5A" mask="url(#path-1-outside-1)"/>
</svg>
