<svg width="32" height="32" viewBox="0 0 32 32" fill="none" xmlns="http://www.w3.org/2000/svg">
<circle cx="16" cy="16" r="16" fill="white"/>
<path d="M11.8555 9.02719C11.0744 8.24614 9.80809 8.24614 9.02704 9.02719C8.24599 9.80824 8.24599 11.0746 9.02704 11.8556L11.8555 9.02719ZM20.0858 22.9144C20.8668 23.6954 22.1332 23.6954 22.9142 22.9144C23.6953 22.1333 23.6953 20.867 22.9142 20.0859L20.0858 22.9144ZM9.02704 11.8556L20.0858 22.9144L22.9142 20.0859L11.8555 9.02719L9.02704 11.8556Z" fill="#5A5A5A"/>
<path d="M9.02704 20.0858C8.24599 20.8668 8.24599 22.1332 9.02704 22.9142C9.80809 23.6953 11.0744 23.6953 11.8555 22.9142L9.02704 20.0858ZM22.9142 11.8555C23.6953 11.0744 23.6953 9.8081 22.9142 9.02705C22.1332 8.246 20.8668 8.246 20.0858 9.02705L22.9142 11.8555ZM11.8555 22.9142L22.9142 11.8555L20.0858 9.02705L9.02704 20.0858L11.8555 22.9142Z" fill="#5A5A5A"/>
</svg>
